<svg height="1902" width="720" xmlns="http://www.w3.org/2000/svg">
<rect height="1902" fill="#555" width="720"></rect>
<text fill="#7f7" font-family="Courier New" font-size="12" xml:space="preserve">
<tspan x="10" y="26"></tspan>
<tspan x="10" y="42">&gt; npmdoc-everyauth@0.0.1 test /home/travis/build/npmdoc/node-npmdoc-everyauth</tspan>
<tspan x="10" y="58">&gt; (set -e; export PORT=$(utility2 shServerPortRandom); utility2 test test.js)</tspan>
<tspan x="10" y="74"></tspan>
<tspan x="10" y="90"></tspan>
<tspan x="10" y="106">[MODE_BUILD=npmTest] - 2017-04-07T21:29:53Z - npm-testing /home/travis/build/npmdoc/node-npmdoc-\</tspan>
<tspan x="10" y="122">everyauth</tspan>
<tspan x="10" y="138"></tspan>
<tspan x="10" y="154"></tspan>
<tspan x="10" y="170">covering $ /home/travis/.nvm/versions/node/v6.10.2/bin/node /home/travis/build/npmdoc/node-npmdo\</tspan>
<tspan x="10" y="186">c-everyauth/test.js</tspan>
<tspan x="10" y="202">merging file:///home/travis/build/npmdoc/node-npmdoc-everyauth/tmp/build/test-report.json to tes\</tspan>
<tspan x="10" y="218">t-report</tspan>
<tspan x="10" y="234">&gt; server listening on http-port 33907</tspan>
<tspan x="10" y="250">created apidoc file:///home/travis/build/npmdoc/node-npmdoc-everyauth/tmp/build/apidoc.html</tspan>
<tspan x="10" y="266"></tspan>
<tspan x="10" y="282"></tspan>
<tspan x="10" y="298">browserTest - created electron entry-page /home/travis/build/npmdoc/node-npmdoc-everyauth/tmp/el\</tspan>
<tspan x="10" y="314">ectron.15b4a52d3510.77cb0ac463c9.html</tspan>
<tspan x="10" y="330"></tspan>
<tspan x="10" y="346">[node test-case 1 of 6 passed] - testCase_buildLib_default</tspan>
<tspan x="10" y="362">[node test-case 2 of 6 passed] - testCase_buildReadme_default</tspan>
<tspan x="10" y="378">Xlib:  extension "RANDR" missing on display ":99.0".</tspan>
<tspan x="10" y="394">[node test-case 3 of 6 passed] - testCase_buildTest_default</tspan>
<tspan x="10" y="410"></tspan>
<tspan x="10" y="426">browserTest - created electron entry-page /home/travis/build/npmdoc/node-npmdoc-everyauth/tmp/el\</tspan>
<tspan x="10" y="442">ectron.15b4a52d3bf0.e1f916a649f78.html</tspan>
<tspan x="10" y="458"></tspan>
<tspan x="10" y="474">Xlib:  extension "RANDR" missing on display ":99.0".</tspan>
<tspan x="10" y="490">merging file:///home/travis/build/npmdoc/node-npmdoc-everyauth/tmp/build/test-report.json to tes\</tspan>
<tspan x="10" y="506">t-report</tspan>
<tspan x="10" y="522">Xlib:  extension "RANDR" missing on display ":99.0".</tspan>
<tspan x="10" y="538">&gt; [6314:0407/212954:WARNING:audio_manager.cc(314)] Multiple instances of AudioManager detected</tspan>
<tspan x="10" y="554">[6314:0407/212954:WARNING:audio_manager.cc(275)] Multiple instances of AudioManager detected</tspan>
<tspan x="10" y="570">server listening on http-port 43355</tspan>
<tspan x="10" y="586">merging file:///home/travis/build/npmdoc/node-npmdoc-everyauth/tmp/build/test-report.json to tes\</tspan>
<tspan x="10" y="602">t-report</tspan>
<tspan x="10" y="618">[6342:0407/212954:ERROR:sandbox_linux.cc(343)] InitializeSandbox() called with multiple threads \</tspan>
<tspan x="10" y="634">in process gpu-process. </tspan>
<tspan x="10" y="650">Xlib:  extension "RANDR" missing on display ":99.0".</tspan>
<tspan x="10" y="666">[6314:0407/212954:ERROR:browser_gpu_channel_host_factory.cc(131)] Failed to create channel.</tspan>
<tspan x="10" y="682">[6302:0407/212954:WARNING:audio_manager.cc(314)] Multiple instances of AudioManager detected</tspan>
<tspan x="10" y="698">[6302:0407/212954:WARNING:audio_manager.cc(275)] Multiple instances of AudioManager detected</tspan>
<tspan x="10" y="714">[6373:0407/212954:ERROR:sandbox_linux.cc(343)] InitializeSandbox() called with multiple threads \</tspan>
<tspan x="10" y="730">in process gpu-process. </tspan>
<tspan x="10" y="746">[6302:0407/212954:ERROR:browser_gpu_channel_host_factory.cc(131)] Failed to create channel.</tspan>
<tspan x="10" y="762"></tspan>
<tspan x="10" y="778">browserTest - opened url http://127.0.0.1:33907?modeTest=1</tspan>
<tspan x="10" y="794"></tspan>
<tspan x="10" y="810"></tspan>
<tspan x="10" y="826">browserTest - opened url /home/travis/build/npmdoc/node-npmdoc-everyauth/tmp/build/apidoc.html</tspan>
<tspan x="10" y="842"></tspan>
<tspan x="10" y="858">[6314:0407/212956:INFO:CONSOLE(249)] "----------|-----------|-----------|-----------|-----------\</tspan>
<tspan x="10" y="874">|</tspan>
<tspan x="10" y="890">File      |   % Stmts |% Branches |   % Funcs |   % Lines |</tspan>
<tspan x="10" y="906">----------|-----------|-----------|-----------|-----------|</tspan>
<tspan x="10" y="922">----------|-----------|-----------|-----------|-----------|</tspan>
<tspan x="10" y="938">All files |       100 |       100 |       100 |       100 |</tspan>
<tspan x="10" y="954">----------|-----------|-----------|-----------|-----------|</tspan>
<tspan x="10" y="970">", source: file:///home/travis/build/npmdoc/node-npmdoc-everyauth/tmp/electron.15b4a52d3bf0.e1f9\</tspan>
<tspan x="10" y="986">16a649f78.html (249)</tspan>
<tspan x="10" y="1002">[6314:0407/212956:INFO:CONSOLE(249)] "created coverage file:///tmp/build/coverage.html/index.htm\</tspan>
<tspan x="10" y="1018">l", source: file:///home/travis/build/npmdoc/node-npmdoc-everyauth/tmp/electron.15b4a52d3bf0.e1f\</tspan>
<tspan x="10" y="1034">916a649f78.html (249)</tspan>
<tspan x="10" y="1050">[node test-case 4 of 6 passed] - testCase_buildApp_default</tspan>
<tspan x="10" y="1066"></tspan>
<tspan x="10" y="1082">browserTest - created screenCapture file:///home/travis/build/npmdoc/node-npmdoc-everyauth/tmp/b\</tspan>
<tspan x="10" y="1098">uild/screenCapture.%2F.png</tspan>
<tspan x="10" y="1114"></tspan>
<tspan x="10" y="1130">browserTest - created screenCapture file:///home/travis/build/npmdoc/node-npmdoc-everyauth/tmp/b\</tspan>
<tspan x="10" y="1146">uild/screenCapture.%2F.html</tspan>
<tspan x="10" y="1162"></tspan>
<tspan x="10" y="1178">browserTest - exit-code 0 - http://127.0.0.1:33907?modeTest=1</tspan>
<tspan x="10" y="1194"></tspan>
<tspan x="10" y="1210"></tspan>
<tspan x="10" y="1226">browserTest - merged coverage from /home/travis/build/npmdoc/node-npmdoc-everyauth/tmp/coverage.\</tspan>
<tspan x="10" y="1242">%2F.json</tspan>
<tspan x="10" y="1258"></tspan>
<tspan x="10" y="1274"></tspan>
<tspan x="10" y="1290">browserTest - merging test-report from /home/travis/build/npmdoc/node-npmdoc-everyauth/tmp/test-\</tspan>
<tspan x="10" y="1306">report.%2F.json</tspan>
<tspan x="10" y="1322"></tspan>
<tspan x="10" y="1338">[node test-case 5 of 6 passed] - testCase_webpage_default</tspan>
<tspan x="10" y="1354"></tspan>
<tspan x="10" y="1370">browserTest - exit-code 1 - /home/travis/build/npmdoc/node-npmdoc-everyauth/tmp/build/apidoc.htm\</tspan>
<tspan x="10" y="1386">l</tspan>
<tspan x="10" y="1402"></tspan>
<tspan x="10" y="1418">[node test-case 6 of 6 passed] - testCase_buildApidoc_default</tspan>
<tspan x="10" y="1434">------------------------------|-----------|-----------|-----------|-----------|</tspan>
<tspan x="10" y="1450">File                          |   % Stmts |% Branches |   % Funcs |   % Lines |</tspan>
<tspan x="10" y="1466">------------------------------|-----------|-----------|-----------|-----------|</tspan>
<tspan x="10" y="1482">   node-npmdoc-everyauth/     |       100 |       100 |       100 |       100 |</tspan>
<tspan x="10" y="1498">      example.js              |       100 |       100 |       100 |       100 |</tspan>
<tspan x="10" y="1514">      lib.npmdoc_everyauth.js |       100 |       100 |       100 |       100 |</tspan>
<tspan x="10" y="1530">      test.js                 |       100 |       100 |       100 |       100 |</tspan>
<tspan x="10" y="1546">------------------------------|-----------|-----------|-----------|-----------|</tspan>
<tspan x="10" y="1562">All files                     |       100 |       100 |       100 |       100 |</tspan>
<tspan x="10" y="1578">------------------------------|-----------|-----------|-----------|-----------|</tspan>
<tspan x="10" y="1594"></tspan>
<tspan x="10" y="1610">created coverage file:///home/travis/build/npmdoc/node-npmdoc-everyauth/tmp/build/coverage.html/\</tspan>
<tspan x="10" y="1626">index.html</tspan>
<tspan x="10" y="1642">merging file:///home/travis/build/npmdoc/node-npmdoc-everyauth/tmp/build/test-report.json to tes\</tspan>
<tspan x="10" y="1658">t-report</tspan>
<tspan x="10" y="1674"></tspan>
<tspan x="10" y="1690">-------------------------------------------------------</tspan>
<tspan x="10" y="1706">| test-report - buildNpmdoc - node - linux v6.10.2 - 2017-04-07T21:29:15.149Z</tspan>
<tspan x="10" y="1722">|   53427 ms            0 failed        6 passed      |</tspan>
<tspan x="10" y="1738">-------------------------------------------------------</tspan>
<tspan x="10" y="1754"></tspan>
<tspan x="10" y="1770">created test-report file:///home/travis/build/npmdoc/node-npmdoc-everyauth/tmp/build/test-report\</tspan>
<tspan x="10" y="1786">.html</tspan>
<tspan x="10" y="1802"></tspan>
<tspan x="10" y="1818"></tspan>
<tspan x="10" y="1834">npmTest - 0 failed tests</tspan>
<tspan x="10" y="1850"></tspan>
<tspan x="10" y="1866"></tspan>
<tspan x="10" y="1882">[MODE_BUILD=npmTest] - 2017-04-07T21:30:11Z - EXIT_CODE - 0</tspan>
</text>
</svg>
